#!OML:ASF I:\Actors\actors\Patient Classification 2\Patient 1\Session 1\actor1.ASF
:FULLY-SPECIFIED
:DEGREES
876
root 0.338494 18.8019 5.89907 7.51069 16.9418 1.57912
lowerback 28.6595 -2.5133 8.29638
upperback 0.275597 1.38226 11.0378
thorax -15.2454 0.522947 7.10346
lowerneck -23.5536 -8.36651 -1.03184
upperneck -10.5783 -10.6134 7.64226
head 0.935113 -5.10762 1.82236
rclavicle 6.04305e-014 -1.59028e-014
rhumerus -65.0744 -2.62702 -81.1001
rradius 86.7294
rwrist 32.8065
rhand -0.0386701 -62.3691
rfingers 7.12502
rthumb 25.5533 90.6752
lclavicle 6.04305e-014 -1.59028e-014
lhumerus -45.9351 -35.3364 125.019
lradius 46.5551
lwrist -7.34122
lhand -1.89786 -14.4964
lfingers 7.12502
lthumb 23.7714 14.0531
rfemur 0 0 0
rtibia 0
rfoot 0 0
rtoes 0
lfemur -17.116 -12.5601 -18.3618
ltibia 26.6997
lfoot -16.0039 4.38039
ltoes -53.9746
877
root 0.328387 18.7995 5.89529 7.4829 16.8265 1.72719
lowerback 28.6103 -2.61799 8.38344
upperback 0.279579 1.26241 11.0217
thorax -15.2025 0.462813 7.08388
lowerneck -23.4875 -7.95715 -0.801792
upperneck -10.9225 -10.1228 6.89864
head 0.721451 -4.90281 1.59735
rclavicle 2.38542e-014 4.13472e-014
rhumerus -65.0724 -2.48067 -81.2844
rradius 86.9016
rwrist 32.8884
rhand 0.0344659 -62.4904
rfingers 7.12502
rthumb 25.6234 90.7864
lclavicle 2.38542e-014 4.13472e-014
lhumerus -45.8797 -35.2892 124.878
lradius 46.4641
lwrist -7.23428
lhand -1.93011 -14.4862
lfingers 7.12502
lthumb 23.7404 14.0674
rfemur 0 0 0
rtibia 0
rfoot 0 0
rtoes 0
lfemur -17.0134 -12.4292 -18.5154
ltibia 26.6463
lfoot -16.0235 4.36993
ltoes -53.9386
878
root 0.318947 18.7977 5.89153 7.44508 16.7133 1.82732
lowerback 28.5807 -2.72744 8.53733
upperback 0.250748 1.16465 10.9943
thorax -15.2061 0.406654 7.00955
lowerneck -23.3654 -7.52558 -0.474105
upperneck -11.2513 -9.63536 6.0108
head 0.497305 -4.70516 1.31079
rclavicle -2.8625e-014 7.31528e-014
rhumerus -65.1403 -2.35693 -81.4946
rradius 87.0829
rwrist 32.9799
rhand 0.106337 -62.6382
rfingers 7.12502
rthumb 25.6922 90.9243
lclavicle -2.8625e-014 7.31528e-014
lhumerus -45.9014 -35.2348 124.763
lradius 46.3845
lwrist -7.18062
lhand -1.88781 -14.4774
lfingers 7.12502
lthumb 23.781 14.0709
rfemur 0 0 0
rtibia 0
rfoot 0 0
rtoes 0
lfemur -16.9168 -12.2173 -18.6248
ltibia 26.5883
lfoot -15.989 4.29242
ltoes -53.9538
879
root 0.311052 18.7969 5.88807 7.4385 16.5881 1.88737
lowerback 28.4781 -2.82365 8.74061
upperback 0.231846 1.08869 10.9779
thorax -15.1634 0.357344 6.90843
lowerneck -23.2397 -7.12824 -0.141219
upperneck -11.6065 -9.20073 5.07681
head 0.270988 -4.53378 1.00603
rclavicle 1.27222e-014 1.08139e-013
rhumerus -65.1539 -2.29797 -81.6977
rradius 87.2357
rwrist 33.0965
rhand 0.1155 -62.7616
rfingers 7.12502
rthumb 25.701 91.0464
lclavicle 1.27222e-014 1.08139e-013
lhumerus -45.8663 -35.1775 124.648
lradius 46.2726
lwrist -7.23784
lhand -1.77922 -14.4656
lfingers 7.12502
lthumb 23.8851 14.0692
rfemur 0 0 0
rtibia 0
rfoot 0 0
rtoes 0
lfemur -16.8653 -11.9885 -18.6857
ltibia 26.5167
lfoot -15.9106 4.20335
ltoes -53.9759
880
root 0.303337 18.7956 5.88528 7.42431 16.4655 2.00351
lowerback 28.3843 -2.91061 8.87995
upperback 0.223477 1.00226 10.9561
thorax -15.1147 0.308006 6.83966
lowerneck -23.1962 -6.78059 0.103792
upperneck -11.9112 -8.8162 4.24278
head 0.0939728 -4.37743 0.740349
rclavicle -3.81667e-014 6.04305e-014
rhumerus -65.1361 -2.24236 -81.8567
rradius 87.3678
rwrist 33.2017
rhand 0.137086 -62.8194
rfingers 7.12502
rthumb 25.7217 91.1013
lclavicle -3.81667e-014 6.04305e-014
lhumerus -45.8006 -35.0982 124.522
lradius 46.1509
lwrist -7.32654
lhand -1.77626 -14.5648
lfingers 7.12502
lthumb 23.888 13.9696
rfemur 0 0 0
rtibia 0
rfoot 0 0
rtoes 0
lfemur -16.774 -11.8384 -18.8027
ltibia 26.4311
lfoot -15.8605 4.13653
ltoes -53.8994
881
root 0.295894 18.7939 5.88319 7.36912 16.3407 2.1672
lowerback 28.3261 -3.00855 8.96741
upperback 0.226811 0.883622 10.9072
thorax -15.0678 0.246834 6.78162
lowerneck -23.1631 -6.38817 0.323904
upperneck -12.1828 -8.37032 3.47488
head -0.0592879 -4.18507 0.502539
rclavicle 6.36111e-014 -6.36111e-015
rhumerus -65.1127 -2.13215 -82.0223
rradius 87.4572
rwrist 33.3145
rhand 0.142685 -62.8105
rfingers 7.12502
rthumb 25.727 91.0916
lclavicle 6.36111e-014 -6.36111e-015
lhumerus -45.7423 -35.0171 124.357
lradius 46.0408
lwrist -7.41221
lhand -1.8814 -14.7121
lfingers 7.12502
lthumb 23.7871 13.8354
rfemur 0 0 0
rtibia 0
rfoot 0 0
rtoes 0
lfemur -16.5993 -11.6826 -18.9813
ltibia 26.3285
lfoot -15.8293 4.02271
ltoes -53.7362
882
root 0.288862 18.7934 5.8813 7.32241 16.2065 2.30129
lowerback 28.2293 -3.0997 9.07077
upperback 0.234247 0.77315 10.8666
thorax -14.9984 0.188732 6.71896
lowerneck -23.147 -5.96232 0.563629
upperneck -12.4205 -7.89087 2.67081
head -0.19452 -3.97507 0.250029
rclavicle -2.06736e-014 5.40694e-014
rhumerus -65.0822 -2.02599 -82.1913
rradius 87.5089
rwrist 33.4704
rhand 0.173566 -62.8754
rfingers 7.12502
rthumb 25.7566 91.1522
lclavicle -2.06736e-014 5.40694e-014
lhumerus -45.6875 -34.995 124.214
lradius 45.9211
lwrist -7.4721
lhand -1.94191 -14.7679
lfingers 7.12502
lthumb 23.7291 13.7872
rfemur 0 0 0
rtibia 0
rfoot 0 0
rtoes 0
lfemur -16.436 -11.4333 -19.1299
ltibia 26.2111
lfoot -15.7581 3.85177
ltoes -53.6314
883
root 0.280311 18.7928 5.87963 7.28975 16.078 2.42683
lowerback 28.1403 -3.1688 9.16653
upperback 0.219276 0.694323 10.8302
thorax -14.9625 0.145215 6.65466
lowerneck -23.1625 -5.5917 0.804731
upperneck -12.6031 -7.49044 1.82681
head -0.301103 -3.80348 -0.0243397
rclavicle -3.65764e-014 7.63333e-014
rhumerus -65.0526 -1.97258 -82.3471
rradius 87.5204
rwrist 33.6574
rhand 0.298819 -62.9928
rfingers 7.12502
rthumb 25.8766 91.2521
lclavicle -3.65764e-014 7.63333e-014
lhumerus -45.6729 -34.985 124.107
lradius 45.7892
lwrist -7.51415
lhand -1.91325 -14.7674
lfingers 7.12502
lthumb 23.7566 13.7841
rfemur 0 0 0
rtibia 0
rfoot 0 0
rtoes 0
lfemur -16.3058 -11.1528 -19.2608
ltibia 26.1006
lfoot -15.6712 3.68593
ltoes -53.6729
884
root 0.272023 18.7917 5.87779 7.25755 15.9388 2.55694
lowerback 28.0466 -3.22087 9.25388
upperback 0.205574 0.633223 10.791
thorax -14.9241 0.110016 6.58424
lowerneck -23.0905 -5.23475 0.989353
upperneck -12.8707 -7.09567 1.01129
head -0.43997 -3.63191 -0.278508
rclavicle -3.65764e-014 5.08889e-014
rhumerus -64.986 -1.92149 -82.4943
rradius 87.5033
rwrist 33.7864
rhand 0.324166 -62.9884
rfingers 7.12502
rthumb 25.9008 91.2442
lclavicle -3.65764e-014 5.08889e-014
lhumerus -45.6498 -34.9776 124.009
lradius 45.6621
lwrist -7.60494
lhand -1.89537 -14.7614
lfingers 7.12502
lthumb 23.7737 13.7879
rfemur 0 0 0
rtibia 0
rfoot 0 0
rtoes 0
lfemur -16.1885 -10.8943 -19.3971
ltibia 26.0136
lfoot -15.6338 3.57029
ltoes -53.75
885
root 0.265605 18.7902 5.8752 7.21363 15.7838 2.68521
lowerback 27.9327 -3.2814 9.34894
upperback 0.205498 0.556368 10.7438
thorax -14.8585 0.0671105 6.50484
lowerneck -23.0395 -4.8679 1.07937
upperneck -13.091 -6.66491 0.299733
head -0.547298 -3.43407 -0.486644
rclavicle 3.18055e-015 -9.85972e-014
rhumerus -64.9135 -1.81487 -82.6714
rradius 87.5053
rwrist 33.8779
rhand 0.22129 -62.9728
rfingers 7.12502
rthumb 25.8023 91.2429
lclavicle 3.18055e-015 -9.85972e-014
lhumerus -45.5306 -34.9261 123.852
lradius 45.475
lwrist -7.76561
lhand -1.88734 -14.8332
lfingers 7.12502
lthumb 23.7814 13.7151
rfemur 0 0 0
rtibia 0
rfoot 0 0
rtoes 0
lfemur -16.0674 -10.5578 -19.5483
ltibia 25.9445
lfoot -15.6 3.4069
ltoes -53.8104
886
root 0.259525 18.7873 5.87184 7.14259 15.6514 2.84609
lowerback 27.8438 -3.35981 9.43366
upperback 0.211365 0.449902 10.6596
thorax -14.7948 0.0100903 6.40146
lowerneck -23.3571 -4.53346 1.28793
upperneck -12.8899 -6.31125 -0.528741
head -0.462052 -3.27909 -0.778687
rclavicle 3.18055e-014 1.04958e-013
rhumerus -64.8441 -1.7179 -82.8935
rradius 87.515
rwrist 33.9967
rhand 0.199923 -62.9024
rfingers 7.12502
rthumb 25.7819 91.1755
lclavicle 3.18055e-014 1.04958e-013
lhumerus -45.3845 -34.8412 123.615
lradius 45.2677
lwrist -7.91015
lhand -1.79413 -14.9291
lfingers 7.12502
lthumb 23.8708 13.6075
rfemur 0 0 0
rtibia 0
rfoot 0 0
rtoes 0
lfemur -15.9155 -10.1965 -19.7472
ltibia 25.8874
lfoot -15.5487 3.18938
ltoes -53.904
887
root 0.25244 18.7836 5.86937 7.05827 15.5536 3.01852
lowerback 27.7528 -3.42669 9.46719
upperback 0.209705 0.345865 10.5925
thorax -14.7426 -0.0412747 6.34441
lowerneck -23.7618 -4.21895 1.65035
upperneck -12.5328 -6.02589 -1.56418
head -0.31662 -3.17131 -1.17747
rclavicle 6.36111e-015 -5.725e-014
rhumerus -64.774 -1.59118 -83.0735
rradius 87.502
rwrist 34.0547
rhand 0.269983 -62.7045
rfingers 7.12502
rthumb 25.8489 90.9678
lclavicle 6.36111e-015 -5.725e-014
lhumerus -45.34 -34.8281 123.483
lradius 45.1449
lwrist -7.85515
lhand -1.63318 -14.8872
lfingers 7.12502
lthumb 24.0252 13.6291
rfemur 0 0 0
rtibia 0
rfoot 0 0
rtoes 0
lfemur -15.7483 -9.94845 -19.9496
ltibia 25.8396
lfoot -15.5216 3.02529
ltoes -53.9463
888
root 0.244467 18.7808 5.86784 6.96766 15.4673 3.13255
lowerback 27.6357 -3.49457 9.54534
upperback 0.195947 0.253665 10.5343
thorax -14.6922 -0.0901421 6.26828
lowerneck -23.8476 -3.89373 1.96096
upperneck -12.5094 -5.70853 -2.45903
head -0.320163 -3.04416 -1.50833
rclavicle -2.70347e-014 9.54166e-015
rhumerus -64.6425 -1.44308 -83.2613
rradius 87.3988
rwrist 34.0631
rhand 0.257002 -62.6524
rfingers 7.12502
rthumb 25.8365 90.9175
lclavicle -2.70347e-014 9.54166e-015
lhumerus -45.3431 -34.8462 123.408
lradius 45.0102
lwrist -7.78684
lhand -1.58956 -14.7989
lfingers 7.12502
lthumb 24.067 13.7119
rfemur 0 0 0
rtibia 0
rfoot 0 0
rtoes 0
lfemur -15.5941 -9.69925 -20.0797
ltibia 25.7939
lfoot -15.4862 2.89752
ltoes -53.9617
889
root 0.236175 18.7784 5.86564 6.87876 15.3627 3.21551
lowerback 27.5016 -3.57528 9.66511
upperback 0.186872 0.148926 10.4459
thorax -14.625 -0.148875 6.13949
lowerneck -23.9397 -3.5834 2.09893
upperneck -12.4977 -5.35787 -3.08196
head -0.310399 -2.88738 -1.72051
rclavicle -5.40694e-014 -1.59028e-014
rhumerus -64.4422 -1.32868 -83.5168
rradius 87.2082
rwrist 34.1671
rhand 0.21051 -62.7629
rfingers 7.12502
rthumb 25.792 91.0346
lclavicle -5.40694e-014 -1.59028e-014
lhumerus -45.2644 -34.7445 123.208
lradius 44.7939
lwrist -7.9533
lhand -1.60396 -14.8128
lfingers 7.12502
lthumb 24.0532 13.6999
rfemur 0 0 0
rtibia 0
rfoot 0 0
rtoes 0
lfemur -15.4613 -9.42297 -20.1754
ltibia 25.7564
lfoot -15.4607 2.78834
ltoes -54.0256
890
root 0.227158 18.7747 5.86261 6.78225 15.251 3.33047
lowerback 27.3728 -3.63834 9.69914
upperback 0.171815 0.0420997 10.3625
thorax -14.5707 -0.202396 6.06366
lowerneck -23.9947 -3.32425 2.14426
upperneck -12.4017 -5.04809 -3.66699
head -0.272569 -2.74646 -1.9086
rclavicle -2.8625e-014 -2.22639e-014
rhumerus -64.3303 -1.22701 -83.7458
rradius 87.0735
rwrist 34.2813
rhand 0.286183 -62.8575
rfingers 7.12502
rthumb 25.8645 91.1186
lclavicle -2.8625e-014 -2.22639e-014
lhumerus -45.2062 -34.6052 123.033
lradius 44.5867
lwrist -8.16993
lhand -1.51822 -14.8573
lfingers 7.12502
lthumb 24.1354 13.6444
rfemur 0 0 0
rtibia 0
rfoot 0 0
rtoes 0
lfemur -15.3266 -9.23077 -20.3004
ltibia 25.7386
lfoot -15.4545 2.70492
ltoes -53.9894
891
root 0.217321 18.77 5.85825 6.62486 15.1885 3.40563
lowerback 27.302 -3.70686 9.79253
upperback 0.149954 -0.0410025 10.2801
thorax -14.5524 -0.249654 5.95142
lowerneck -23.924 -3.10639 2.18964
upperneck -12.4373 -4.79638 -4.29185
head -0.299746 -2.63416 -2.10941
rclavicle -3.65764e-014 -1.24042e-013
rhumerus -64.267 -1.21474 -83.9183
rradius 86.9868
rwrist 34.3471
rhand 0.456901 -62.8164
rfingers 7.12502
rthumb 26.0279 91.0536
lclavicle -3.65764e-014 -1.24042e-013
lhumerus -45.2315 -34.62 122.965
lradius 44.3992
lwrist -8.25276
lhand -1.34942 -14.8745
lfingers 7.12502
lthumb 24.2972 13.6057
rfemur 0 0 0
rtibia 0
rfoot 0 0
rtoes 0
lfemur -15.1513 -9.12443 -20.3767
ltibia 25.7349
lfoot -15.4463 2.64218
ltoes -53.9002
